<?xml version="1.0" standalone="yes"?>
<svg xmlns="http://www.w3.org/2000/svg" width="1000" height="1000">
<path style="fill:#000000; stroke:none;" d="M491 62C481.049 67.305 472.096 71.9746 467.338 83C457.59 105.589 474.03 133.859 499 135C497.594 167.668 476.646 201.681 450 219.642C421.602 238.784 389.017 247.964 367.015 276C327.464 326.397 340 399.022 340 459L366 447L366 379C366 347.143 366.654 316.221 389.174 291C412.005 265.43 443.967 256.868 471 237.421C481.7 229.723 494.521 219.294 500 207L502 207C505.994 217.326 516.568 226.377 525 233.195C550.568 253.871 585.315 261.373 607.83 286.004C646.906 328.751 635 394.544 635 448L661 460C661 401.393 673.441 328.858 636.105 279C610.415 244.694 568.883 236.933 538.001 209.714C516.558 190.815 506.292 162.29 501 135C518.823 134.63 531.469 122.242 537 106C529.535 111.196 523.545 116.911 514 117.823C493.983 119.734 479.064 99.621 482.329 81C483.641 73.5145 488.881 68.0299 493 62L491 62M499 233C484.45 253.484 457.232 262.799 436 274.309C426.131 279.659 418.079 286.63 409 293L408 294L393 315L385.438 339L384 393L384 484L373 488L372 490L356 498C343.459 500.236 328.979 509.592 318 516L318 364C309.615 365.495 301.573 370.967 294 374.753C278.258 382.624 262.738 390.884 247 398.753C196.455 424.026 136.204 444.047 120.895 505C115.182 527.749 117 551.756 117 575L118 576L272 576L272 415L292 405L292 557C308.3 555.33 324.941 541.269 340 535L340 601L363 591L393 575.753L426 560L500 522L501 522C524.223 541.242 558.469 546.536 583 564C609.944 571.762 633.41 596.082 661 601L661 535L708 557L708 406L729 416L729 576L883 576C883 541.447 885.93 507.372 868.688 476C854.559 450.29 829.294 436.4 804 423.753C781.338 412.422 758.515 401.362 736 389.742C719.932 381.448 700.883 367.188 683 364L683 516L617 484L617 383C617 357.532 618.099 332.72 604.547 310C588.777 283.56 561.195 274.198 536 259.576C526.107 253.834 517.169 244.714 507 240L506 239L506 237L503 236L502 233L499 233z"/>
<path style="fill:#ffffff; stroke:none;" d="M500 267C476.828 287.049 442.038 292.592 422.819 317C407.694 336.207 410 359.023 410 382L410 501L391 509L366 522L366 559C380.821 556.358 396.554 544.97 410 538.247C435.164 525.665 465.135 515.278 488 499L488 417L500 409L514 418L513.999 476L515 501L547 516.73L603 544.247L635 559L635 522L591 501L591 387C591 367.141 593.808 345.343 584.63 327C576.821 311.394 563.479 304.598 550 295L500 267z"/>
<path style="fill:#000000; stroke:none;" d="M500 336L497 344L491 354L472 356L486 370L482 390L500 381.809L519 390L515 370L530 356L510 354L500 336z"/>
<path style="fill:#ffffff; stroke:none;" d="M243 430C204.793 452.3 158.585 463.325 146.475 512C143.371 524.478 144 537.257 144 550L245 550L246 549L246 430L243 430M755 430L755 550L857 550C857 536.175 857.504 522.528 854.105 509C845.523 474.838 816.299 458.918 787 444.742C776.945 439.876 766.047 431.969 755 430z"/>
<path style="fill:#000000; stroke:none;" d="M117 656L149.14 730L206.86 862L240 938L261 938L318.424 809L386 657L355 656L319.691 735L251 890L208.576 794L148 656L117 656M422 657L422 937L423 938L449 938L450 937L450 854L481 824L512 792L514 792L556.349 847L628 938L663 938C639.911 901.048 607.974 867.102 580.801 833C565.498 813.794 551.475 789.145 533 773L534 770L536 770L537 767L546 758L547 757C558.737 751.526 568.88 737.12 578 728L625 681C632.358 673.642 642.832 666.025 648 657L609 657L532 734C521.742 744.258 504.508 756.145 498 769L496 771L481 786C469.253 791.478 459.133 805.867 450 815L450 657L422 657M753 657L750 658L750 684L751 685L853 685L853 837C853 860.645 851.405 886.889 829 900.536C798.14 919.333 751.509 912.874 718 905.789C707.126 903.49 696.041 898.963 685 898L685 927C736.677 934.603 805.581 955.998 852 919.482C877.776 899.206 881 864.452 881 834L881 658L753 657z"/>
</svg>
