<svg version="1.2" xmlns="http://www.w3.org/2000/svg" viewBox="0 0 1572 595" width="1572" height="595">
	<title>Tracing (1)-svg</title>
	<style>
		.s0 { fill: #000000 } 
		.s1 { fill: #ffffff } 
	</style>
	<path class="s0" d="m405 31c-10 5.3-18.9 10-23.7 21-9.7 22.6 6.7 50.9 31.7 52-1.4 32.7-22.4 66.7-49 84.6-28.4 19.2-61 28.4-83 56.4-39.5 50.4-27 123-27 183l26-12v-68c0-31.9 0.7-62.8 23.2-88 22.8-25.6 54.8-34.1 81.8-53.6 10.7-7.7 23.5-18.1 29-30.4h2c4 10.3 14.6 19.4 23 26.2 25.6 20.7 60.3 28.2 82.8 52.8 39.1 42.8 27.2 108.5 27.2 162l26 12c0-58.6 12.4-131.1-24.9-181-25.7-34.3-67.2-42.1-98.1-69.3-21.4-18.9-31.7-47.4-37-74.7 17.8-0.4 30.5-12.8 36-29-7.5 5.2-13.5 10.9-23 11.8-20 1.9-34.9-18.2-31.7-36.8 1.3-7.5 6.6-13 10.7-19zm8 171c-14.6 20.5-41.8 29.8-63 41.3-9.9 5.4-17.9 12.3-27 18.7l-1 1-15 21-7.6 24-1.4 54v91l-11 4-1 2-16 8c-12.5 2.2-27 11.6-38 18v-152c-8.4 1.5-16.4 7-24 10.8-15.7 7.8-31.3 16.1-47 24-50.5 25.2-110.8 45.2-126.1 106.2-5.7 22.7-3.9 46.8-3.9 70l1 1h154v-161l20-10v152c16.3-1.7 32.9-15.7 48-22v66l23-10 30-15.2 33-15.8 74-38h1c23.2 19.2 57.5 24.5 82 42 26.9 7.8 50.4 32.1 78 37v-66l47 22v-151l21 10v160h154c0-34.6 2.9-68.6-14.3-100-14.1-25.7-39.4-39.6-64.7-52.2-22.7-11.4-45.5-22.4-68-34.1-16.1-8.3-35.1-22.5-53-25.7v152l-66-32v-101c0-25.5 1.1-50.3-12.5-73-15.7-26.4-43.3-35.8-68.5-50.4-9.9-5.8-18.8-14.9-29-19.6l-1-1v-2l-3-1-1-3z"/>
	<path class="s1" d="m414 236c-23.2 20-58 25.6-77.2 50-15.1 19.2-12.8 42-12.8 65v119l-19 8-25 13v37c14.8-2.6 30.6-14 44-20.8 25.2-12.5 55.1-22.9 78-39.2v-82l12-8 14 9v58l1 25 32 15.7 56 27.5 32 14.8v-37l-44-21v-114c0-19.9 2.8-41.7-6.4-60-7.8-15.6-21.1-22.4-34.6-32z"/>
	<path class="s0" d="m414 305l-3 8-6 10-19 2 14 14-4 20 18-8.2 19 8.2-4-20 15-14-20-2z"/>
	<path class="s1" d="m157 399c-38.2 22.3-84.4 33.3-96.5 82-3.1 12.5-2.5 25.3-2.5 38h101l1-1v-119zm512 0v120h102c0-13.8 0.5-27.5-2.9-41-8.6-34.2-37.8-50.1-67.1-64.3-10.1-4.8-21-12.7-32-14.7z"/>
	<path class="s0" d="m752 254l32.1 74 57.8 132 33.1 76h21l57.4-129 67.6-152-31-1-35.3 79-68.7 155-42.4-96-60.6-138zm305 1v280l1 1h26l1-1v-83l31-30 31-32h2l42.3 55 71.7 91h35c-23.1-37-55-70.9-82.2-105-15.3-19.2-29.3-43.9-47.8-60l1-3h2l1-3 9-9 1-1c11.7-5.5 21.9-19.9 31-29l47-47c7.4-7.4 17.8-15 23-24h-39l-77 77c-10.3 10.3-27.5 22.1-34 35l-2 2-15 15c-11.7 5.5-21.9 19.9-31 29v-158zm331 0l-3 1v26l1 1h102v152c0 23.6-1.6 49.9-24 63.5-30.9 18.8-77.5 12.4-111 5.3-10.9-2.3-22-6.8-33-7.8v29c51.7 7.6 120.6 29 167-7.5 25.8-20.3 29-55 29-85.5v-176z"/>
</svg>