<?xml version="1.0" encoding="UTF-8" standalone="no"?>
<!-- Created with Inkscape (http://www.inkscape.org/) -->

<svg
   version="1.1"
   id="svg2"
   width="721.22668"
   height="307.56"
   viewBox="0 0 721.22668 307.56"
   sodipodi:docname="25862183_3700.eps"
   xmlns:inkscape="http://www.inkscape.org/namespaces/inkscape"
   xmlns:sodipodi="http://sodipodi.sourceforge.net/DTD/sodipodi-0.dtd"
   xmlns="http://www.w3.org/2000/svg"
   xmlns:svg="http://www.w3.org/2000/svg">
  <defs
     id="defs6" />
  <sodipodi:namedview
     id="namedview4"
     pagecolor="#ffffff"
     bordercolor="#000000"
     borderopacity="0.25"
     inkscape:showpageshadow="2"
     inkscape:pageopacity="0.0"
     inkscape:pagecheckerboard="0"
     inkscape:deskcolor="#d1d1d1" />
  <g
     id="g8"
     inkscape:groupmode="layer"
     inkscape:label="ink_ext_XXXXXX"
     transform="matrix(1.3333333,0,0,-1.3333333,0,307.56)">
    <g
       id="g10"
       transform="scale(0.1)">
      <path
         d="M 5409.17,0 H 0 V 2306.68 H 5409.17 V 0"
         style="fill:#ffffff;fill-opacity:1;fill-rule:nonzero;stroke:none"
         id="path12" />
      <path
         d="m 3827.79,864.871 c -3.5,0 -6.43,2.719 -6.62,6.258 l -8.29,152.271 h -96.03 l -6.47,-152.181 c -0.16,-3.68 -2.85,-6.418 -6.91,-6.348 -3.65,0.149 -6.5,3.25 -6.34,6.899 l 6.74,158.52 c 0.15,3.54 3.07,6.35 6.63,6.35 h 108.66 c 3.52,0 6.42,-2.76 6.61,-6.26 l 8.65,-158.521 c 0.19,-3.66 -2.61,-6.789 -6.26,-6.988 -0.12,0 -0.24,0 -0.37,0 z M 3697.05,718.828 c -0.11,0 -0.21,0 -0.32,0 -3.64,0.172 -6.48,3.281 -6.31,6.942 l 5.77,125.859 c 0.16,3.691 3.22,6.48 6.93,6.32 3.65,-0.148 6.48,-3.269 6.32,-6.918 l -5.78,-125.883 c -0.15,-3.558 -3.09,-6.32 -6.61,-6.32 z m 139.38,-0.957 c -3.49,0 -6.41,2.688 -6.62,6.199 l -7.68,126.852 c -0.21,3.668 2.57,6.797 6.22,7.027 3.66,-0.179 6.8,-2.558 7.03,-6.211 l 7.67,-126.847 c 0.23,-3.661 -2.56,-6.813 -6.22,-7.02 -0.13,0 -0.27,0 -0.4,0 z M 3682.63,334.52 c -0.08,0 -0.16,0 -0.25,0 -3.66,0.128 -6.51,3.199 -6.37,6.871 l 13.44,362.199 c 0.13,3.66 2.6,6.531 6.87,6.379 3.66,-0.149 6.52,-3.219 6.38,-6.891 l -13.45,-362.187 c -0.12,-3.571 -3.07,-6.371 -6.62,-6.371 z m 174.02,-44.231 c -3.54,0 -6.47,2.742 -6.64,6.301 l -19.22,405.48 c -0.16,3.66 2.65,6.758 6.3,6.93 3.87,0.301 6.75,-2.641 6.94,-6.289 l 19.23,-405.481 c 0.17,-3.671 -2.65,-6.769 -6.3,-6.941 -0.11,0 -0.21,0 -0.31,0"
         style="fill:#100f0d;fill-opacity:1;fill-rule:nonzero;stroke:none"
         id="path14" />
      <path
         d="m 3748.87,877.102 h 39.58 v 113.546 c 0,10.812 -8.48,19.312 -19.3,19.312 -11,0 -20.28,-8.86 -20.28,-19.312 z m 46.21,-13.231 h -52.86 c -3.65,0 -6.62,2.957 -6.62,6.617 v 120.16 c 0,17.962 15.05,32.552 33.55,32.552 17.95,0 32.57,-14.59 32.57,-32.552 v -120.16 c 0,-3.66 -2.97,-6.617 -6.64,-6.617"
         style="fill:#100f0d;fill-opacity:1;fill-rule:nonzero;stroke:none"
         id="path16" />
      <path
         d="m 3709.53,1041.68 c -2.07,0 -2.96,-0.92 -2.96,-3.01 0,-1.88 2.26,-2.03 2.96,-2.03 h 110.59 c 1.5,0 2.94,1.29 2.94,2.03 0,2.12 -1.92,3.01 -2.94,3.01 z m 110.59,-18.28 h -110.59 c -9.26,0 -16.23,6.55 -16.23,15.27 0,9.42 6.83,16.24 16.23,16.24 h 110.59 c 8.94,0 16.21,-7.29 16.21,-16.24 0,-8.29 -7.43,-15.27 -16.21,-15.27"
         style="fill:#100f0d;fill-opacity:1;fill-rule:nonzero;stroke:none"
         id="path18" />
      <path
         d="m 3690.31,863.871 c -1.2,0 -2.97,-0.93 -2.97,-2.941 0,-1.129 1.83,-2.981 2.97,-2.981 h 148.06 c 1.15,0 2.96,1.852 2.96,2.981 0,2.011 -1.75,2.941 -2.96,2.941 z m 148.06,-19.172 h -148.06 c -8.5,0 -16.24,7.75 -16.24,16.231 0,8.922 7.28,16.172 16.24,16.172 h 148.06 c 8.95,0 16.23,-7.25 16.23,-16.172 0,-8.481 -7.73,-16.231 -16.23,-16.231"
         style="fill:#100f0d;fill-opacity:1;fill-rule:nonzero;stroke:none"
         id="path20" />
      <path
         d="m 3708.58,1042.6 c -2.92,0 -5.6,1.94 -6.39,4.9 -1.28,4.65 -11.08,46.28 34.05,70.05 3.24,1.7 7.23,0.48 8.96,-2.77 1.71,-3.25 0.46,-7.27 -2.78,-8.97 -36,-18.95 -28.43,-51.24 -27.45,-54.86 0.96,-3.52 -1.12,-7.16 -4.65,-8.12 -0.59,-0.16 -1.17,-0.23 -1.74,-0.23"
         style="fill:#100f0d;fill-opacity:1;fill-rule:nonzero;stroke:none"
         id="path22" />
      <path
         d="m 3738.38,1105.06 c -2.7,0 -5.25,1.68 -6.23,4.37 -1.23,3.46 0.56,7.24 4,8.5 0.1,0.02 12.11,4.47 21.37,14.58 2.49,2.7 6.68,2.85 9.38,0.4 2.69,-2.48 2.88,-6.66 0.41,-9.38 -11.56,-12.6 -26.07,-17.88 -26.69,-18.08 -0.74,-0.28 -1.49,-0.39 -2.24,-0.39"
         style="fill:#100f0d;fill-opacity:1;fill-rule:nonzero;stroke:none"
         id="path24" />
      <path
         d="m 3788.35,1104.11 c -0.94,0 -1.91,0.19 -2.84,0.6 -1.98,0.97 -19.71,9.49 -28.05,18.92 -2.44,2.72 -2.18,6.91 0.56,9.34 2.7,2.45 6.92,2.22 9.36,-0.56 5.54,-6.25 19.06,-13.45 23.81,-15.7 3.31,-1.55 4.72,-5.51 3.16,-8.82 -1.13,-2.4 -3.52,-3.78 -6,-3.78"
         style="fill:#100f0d;fill-opacity:1;fill-rule:nonzero;stroke:none"
         id="path26" />
      <path
         d="m 3738.38,1104.11 c -2.46,0 -4.83,1.35 -5.96,3.76 -1.6,3.3 -0.21,7.25 3.08,8.84 1.2,0.53 29.39,13.83 52.33,0.74 3.18,-1.83 4.28,-5.88 2.47,-9.04 -1.8,-3.19 -5.83,-4.3 -9.05,-2.48 -16.97,9.69 -39.76,-1.04 -39.99,-1.18 -0.93,-0.45 -1.91,-0.64 -2.88,-0.64"
         style="fill:#100f0d;fill-opacity:1;fill-rule:nonzero;stroke:none"
         id="path28" />
      <path
         d="m 3818.18,1042.6 c -0.44,0 -0.88,0.02 -1.34,0.11 -3.57,0.75 -5.9,4.26 -5.17,7.83 7.55,36.84 -28.73,55 -29.09,55.19 -3.3,1.6 -4.66,5.56 -3.05,8.87 1.59,3.28 5.59,4.67 8.86,3.04 15.91,-7.75 43.94,-32.3 36.28,-69.73 -0.64,-3.15 -3.41,-5.31 -6.49,-5.31"
         style="fill:#100f0d;fill-opacity:1;fill-rule:nonzero;stroke:none"
         id="path30" />
      <path
         d="m 3762.12,1149 c -2.01,-0.4 -4.42,-2.5 -4.42,-5.59 0,-3.4 2.92,-5.6 4.99,-5.67 1.52,0.07 4.44,2.27 4.44,5.67 0,3.09 -2.42,5.19 -4.44,5.59 v 0.07 c -0.17,-0.02 -0.37,-0.02 -0.57,0 z m 0.3,-13.17 c -8.45,0 -8.55,7.25 -8.55,7.58 0,0.32 0.1,7.56 8.55,7.56 8.43,0 8.54,-7.24 8.54,-7.56 0,-0.33 -0.11,-7.58 -8.54,-7.58"
         style="fill:#100f0d;fill-opacity:1;fill-rule:nonzero;stroke:none"
         id="path32" />
      <path
         d="m 3762.42,1142.33 c -1.53,0 -3.73,-1.82 -3.73,-4.7 0,-2.88 2.2,-4.7 3.73,-4.7 3.61,0 3.77,4.65 3.77,4.7 0,0.03 -0.16,4.7 -3.77,4.7 z m 0,-13.23 c -3.88,0 -9.5,3.01 -9.5,8.53 0,5.5 5.62,8.56 9.5,8.56 5.44,0 9.53,-3.68 9.53,-8.56 0,-4.23 -3.58,-8.53 -9.53,-8.53"
         style="fill:#100f0d;fill-opacity:1;fill-rule:nonzero;stroke:none"
         id="path34" />
      <path
         d="m 3762.42,1135.62 c -0.6,0 -2.78,-1.71 -2.78,-4.71 0,-3 2.18,-4.71 2.78,-4.71 3.61,0 3.77,4.66 3.77,4.71 0,0.03 -0.16,4.71 -3.77,4.71 z m 0,-13.24 c -3.88,0 -9.5,3.03 -9.5,8.53 0,5.5 5.62,8.53 9.5,8.53 5.15,0 10.49,-3.18 10.49,-8.53 0,-5.35 -5.34,-8.53 -10.49,-8.53"
         style="fill:#100f0d;fill-opacity:1;fill-rule:nonzero;stroke:none"
         id="path36" />
      <path
         d="m 3762.42,1138.69 c -3.67,0 -6.64,2.96 -6.64,6.62 v 6.75 c 0,3.66 2.97,6.62 6.64,6.62 3.65,0 6.64,-2.96 6.64,-6.62 v -6.75 c 0,-3.66 -2.99,-6.62 -6.64,-6.62"
         style="fill:#100f0d;fill-opacity:1;fill-rule:nonzero;stroke:none"
         id="path38" />
      <path
         d="m 3682.63,717.871 c -2.11,0 -3.95,-1.859 -3.95,-3.941 0,-2.11 1.84,-3.961 3.95,-3.961 h 163.43 c 2.11,0 3.94,1.851 3.94,3.961 0,2.082 -1.83,3.941 -3.94,3.941 z m 163.43,-21.152 h -163.43 c -9.5,0 -17.22,7.711 -17.22,17.211 0,9.48 7.72,17.172 17.22,17.172 h 163.43 c 9.48,0 17.22,-7.692 17.22,-17.172 0,-9.5 -7.74,-17.211 -17.22,-17.211"
         style="fill:#100f0d;fill-opacity:1;fill-rule:nonzero;stroke:none"
         id="path40" />
      <path
         d="m 3672.05,510.359 c -2.05,0 -4.92,-1.859 -4.92,-4.918 0,-3.043 2.87,-4.941 4.92,-4.941 h 184.6 c 1.99,0 4.89,1.789 4.89,4.941 0,3.059 -2.85,4.918 -4.89,4.918 z m 184.6,-23.089 h -184.6 c -9.85,0 -18.18,8.32 -18.18,18.171 0,9.848 8.33,18.168 18.18,18.168 h 184.6 c 9.84,0 18.16,-8.32 18.16,-18.168 0,-9.851 -8.32,-18.171 -18.16,-18.171"
         style="fill:#100f0d;fill-opacity:1;fill-rule:nonzero;stroke:none"
         id="path42" />
      <path
         d="m 4006.61,868.711 c -1.64,0 -3.29,0.578 -4.57,1.789 -2.32,2.219 -56.78,55.012 -49.78,128.309 5.25,55.031 43.7,105.851 114.24,151.131 123.45,78.88 146.03,113.49 147.87,157.07 0.14,3.65 3.17,6.47 6.9,6.33 3.67,-0.15 6.51,-3.24 6.35,-6.88 -2.05,-48.26 -25.6,-85.65 -153.97,-167.7 -66.88,-42.9 -103.27,-90.36 -108.18,-141.08 -6.45,-66.828 45.19,-117.059 45.73,-117.571 2.61,-2.519 2.74,-6.738 0.22,-9.371 -1.33,-1.367 -3.06,-2.027 -4.81,-2.027"
         style="fill:#100f0d;fill-opacity:1;fill-rule:nonzero;stroke:none"
         id="path44" />
      <path
         d="m 4435.37,868.711 c -1.76,0 -3.49,0.66 -4.82,2.027 -2.51,2.633 -2.39,6.852 0.25,9.371 0.51,0.512 52.16,50.743 45.7,117.571 -4.88,50.72 -41.27,98.18 -108.12,141.1 -128.4,82.01 -151.96,119.42 -154.01,167.68 -0.16,3.64 2.69,6.73 6.35,6.88 3.6,0.14 6.77,-2.68 6.9,-6.33 1.84,-43.58 24.44,-78.21 147.9,-157.05 70.52,-45.27 108.95,-96.12 114.2,-151.151 7.01,-73.278 -47.47,-126.09 -49.78,-128.309 -1.28,-1.211 -2.93,-1.789 -4.57,-1.789"
         style="fill:#100f0d;fill-opacity:1;fill-rule:nonzero;stroke:none"
         id="path46" />
      <path
         d="m 4221.01,1352.96 c -8.17,0 -14.32,4.92 -14.32,11.45 0,6.51 6.15,11.39 14.32,11.39 7.59,0 13.32,-4.88 13.32,-11.39 0,-6.53 -5.73,-11.45 -13.32,-11.45"
         style="fill:#100f0d;fill-opacity:1;fill-rule:nonzero;stroke:none"
         id="path48" />
      <path
         d="m 4221.96,1328.93 c -9.82,0 -17.21,5.73 -17.21,13.36 0,7.61 7.39,13.34 17.21,13.34 8.96,0 16.24,-5.99 16.24,-13.34 0,-7.37 -7.28,-13.36 -16.24,-13.36"
         style="fill:#100f0d;fill-opacity:1;fill-rule:nonzero;stroke:none"
         id="path50" />
      <path
         d="m 4217.1,1316.41 c 0.74,0 2.53,-1.13 4.86,-1.13 3.34,0 5.51,1.5 5.85,2.16 -0.34,-0.56 -2.63,0.9 -5.85,0.9 -2.48,0 -4.69,-1.35 -5.13,-2.04 0.05,0.08 0.14,0.11 0.27,0.11 z m 4.86,-14.37 c -8.78,0 -18.16,6.15 -18.16,15.29 0,8.4 9.55,14.24 18.16,14.24 10.37,0 19.1,-6.5 19.1,-14.24 0,-8.58 -8.39,-15.29 -19.1,-15.29"
         style="fill:#100f0d;fill-opacity:1;fill-rule:nonzero;stroke:none"
         id="path52" />
      <path
         d="m 4221.01,1365.43 c -0.1,0 -0.19,0 -0.29,0 -3.64,0.14 -6.51,3.23 -6.35,6.89 l 0.97,24.04 c 0.13,3.64 3.25,6.48 6.88,6.34 3.64,-0.13 6.52,-3.22 6.35,-6.9 l -0.95,-24.03 c -0.13,-3.53 -3.07,-6.34 -6.61,-6.34"
         style="fill:#100f0d;fill-opacity:1;fill-rule:nonzero;stroke:none"
         id="path54" />
      <path
         d="m 4260.13,1519.18 3.28,-2.48 c 2.28,-1.7 3.21,-4.68 2.33,-7.4 l -1.26,-3.75 3.58,2.58 c 2.36,1.66 5.53,1.63 7.84,-0.1 l 2.26,-1.69 -0.98,2.95 c -0.93,2.78 0.07,5.81 2.43,7.53 l 3.31,2.36 h -4.22 c -2.93,0 -5.53,1.92 -6.37,4.74 l -0.79,2.72 -0.98,-2.95 c -0.92,-2.72 -3.47,-4.51 -6.31,-4.51 z m -8.37,-37.48 c -1.38,0 -2.77,0.41 -3.93,1.25 -2.3,1.71 -3.25,4.72 -2.37,7.46 l 6.17,18.54 -15.4,11.52 c -2.28,1.72 -3.22,4.7 -2.33,7.41 0.91,2.71 3.46,4.53 6.3,4.53 h 19.28 l 6.14,18.51 c 0.91,2.75 3.77,4.7 6.42,4.53 2.89,-0.04 5.44,-1.98 6.26,-4.75 l 5.37,-18.29 h 20.02 c 2.89,0 5.44,-1.87 6.32,-4.6 0.86,-2.75 -0.13,-5.76 -2.48,-7.44 l -16.22,-11.52 6.17,-18.44 c 0.92,-2.74 -0.05,-5.78 -2.39,-7.48 -2.32,-1.7 -5.51,-1.7 -7.88,0.07 l -15.38,11.51 -16.2,-11.6 c -1.16,-0.82 -2.53,-1.21 -3.87,-1.21"
         style="fill:#100f0d;fill-opacity:1;fill-rule:nonzero;stroke:none"
         id="path56" />
      <path
         d="m 4218.12,1407.52 c 0.63,0 1.24,-0.06 1.88,-0.25 5.83,-1.69 12.82,-2.62 20.2,-2.62 23.71,0 46.31,10.98 61.57,28.73 -8.46,-2.99 -17.59,-4.53 -26.94,-4.53 -45,0 -81.61,36.58 -81.61,81.58 0,19.92 7.14,38.64 19.84,53.28 -31.99,-11.15 -54.66,-41.55 -54.66,-77.32 0,-34.01 20.57,-63.61 52.41,-75.42 2.03,-0.75 3.45,-2.37 4.04,-4.31 0.98,0.57 2.12,0.86 3.27,0.86 z m 22.08,-16.1 c -8.62,0 -16.9,1.06 -23.94,3.12 -2.22,0.66 -3.83,2.38 -4.48,4.45 -1.63,-0.92 -3.73,-1.18 -5.57,-0.45 -37.08,13.75 -61.04,48.21 -61.04,87.85 0,51.19 39.94,92.95 90.96,95.04 2.82,0.21 5.76,-1.8 6.62,-4.71 0.86,-2.88 -0.32,-6 -2.91,-7.58 -20.89,-12.71 -33.38,-34.67 -33.38,-58.71 0,-37.68 30.67,-68.34 68.37,-68.34 15.74,0 30.63,5.27 41.86,14.77 2.36,1.99 5.75,2.12 8.22,0.29 2.49,-1.81 3.38,-5.11 2.17,-7.94 -14.7,-34.55 -49.6,-57.79 -86.88,-57.79"
         style="fill:#100f0d;fill-opacity:1;fill-rule:nonzero;stroke:none"
         id="path58" />
      <path
         d="m 4070.07,868.711 c -2.03,0 -4.01,0.891 -5.3,2.629 -1.06,1.43 -103.82,142.82 45.03,277.93 87.75,79.32 103.64,114.03 104.57,157.6 0.07,3.65 2.84,6.32 6.77,6.47 3.66,-0.05 6.57,-3.08 6.48,-6.74 -1,-47.47 -17.55,-84.58 -108.92,-167.16 -140.01,-127.08 -44.31,-258.85 -43.32,-260.17 2.19,-2.942 1.59,-7.079 -1.35,-9.258 -1.18,-0.903 -2.57,-1.301 -3.96,-1.301"
         style="fill:#100f0d;fill-opacity:1;fill-rule:nonzero;stroke:none"
         id="path60" />
      <path
         d="m 4145.01,868.711 c -2.69,0 -5.22,1.641 -6.23,4.328 -0.49,1.402 -50.16,140.791 23.53,274.521 43.06,77.83 51.09,113.36 52.06,159.31 0.07,3.65 2.84,6.32 6.77,6.47 3.66,-0.05 6.57,-3.08 6.48,-6.74 -1,-48.19 -9.3,-85.19 -53.71,-165.45 -70.69,-128.29 -23.16,-262.22 -22.66,-263.56 1.25,-3.442 -0.52,-7.238 -3.95,-8.512 -0.75,-0.269 -1.52,-0.367 -2.29,-0.367"
         style="fill:#100f0d;fill-opacity:1;fill-rule:nonzero;stroke:none"
         id="path62" />
      <path
         d="m 4372.89,868.711 c -1.38,0 -2.76,0.398 -3.95,1.289 -2.93,2.141 -3.56,6.309 -1.39,9.238 3.96,5.391 95.53,133.332 -44.29,260.202 -90.02,81.37 -106.84,118.68 -108.89,167.02 -0.16,3.64 2.69,6.73 6.35,6.88 3.6,0.14 6.77,-2.68 6.9,-6.33 1.89,-44.55 18.03,-79.52 104.53,-157.74 148.88,-135.09 47.1,-276.469 46.05,-277.899 -1.29,-1.769 -3.29,-2.66 -5.31,-2.66"
         style="fill:#100f0d;fill-opacity:1;fill-rule:nonzero;stroke:none"
         id="path64" />
      <path
         d="m 4296.96,868.711 c -0.78,0 -1.55,0.117 -2.33,0.398 -3.4,1.27 -5.16,5.082 -3.89,8.532 0.51,1.339 48.96,135.249 -21.7,263.509 -45.24,81.77 -53.68,118.5 -54.67,165.45 -0.09,3.66 2.83,6.69 6.48,6.74 3.66,-0.15 6.7,-2.82 6.77,-6.47 0.95,-44.72 9.12,-79.97 53.02,-159.31 73.67,-133.75 23.05,-273.169 22.53,-274.572 -1.01,-2.648 -3.53,-4.277 -6.21,-4.277"
         style="fill:#100f0d;fill-opacity:1;fill-rule:nonzero;stroke:none"
         id="path66" />
      <path
         d="m 4473.86,831.238 c -3.66,0 -6.62,2.953 -6.62,6.621 0,16.481 -13.45,29.871 -29.94,29.871 h -425.88 c -16.5,0 -29.93,-13.39 -29.93,-29.871 0,-3.668 -2.96,-6.621 -6.62,-6.621 -3.66,0 -6.63,2.953 -6.63,6.621 0,23.782 19.36,43.121 43.18,43.121 h 425.88 c 23.82,0 43.18,-19.339 43.18,-43.121 0,-3.668 -2.95,-6.621 -6.62,-6.621"
         style="fill:#100f0d;fill-opacity:1;fill-rule:nonzero;stroke:none"
         id="path68" />
      <path
         d="m 4496.91,418.09 c -3.5,0 -6.42,2.738 -6.62,6.262 l -23.05,415.089 c -0.2,3.649 2.6,6.77 6.26,6.969 3.61,0.27 6.78,-2.609 6.98,-6.25 l 23.05,-415.082 c 0.22,-3.656 -2.6,-6.769 -6.26,-6.988 -0.11,0 -0.24,0 -0.36,0"
         style="fill:#100f0d;fill-opacity:1;fill-rule:nonzero;stroke:none"
         id="path70" />
      <path
         d="m 3961.42,320.109 c -0.06,0 -0.12,0 -0.17,0 -3.67,0.102 -6.56,3.141 -6.46,6.813 l 13.45,513.058 c 0.09,3.59 3.04,6.43 6.63,6.43 0.05,0 0.11,0 0.17,0 3.68,-0.082 6.57,-3.129 6.45,-6.789 l -13.44,-513.062 c -0.1,-3.61 -3.05,-6.45 -6.63,-6.45"
         style="fill:#100f0d;fill-opacity:1;fill-rule:nonzero;stroke:none"
         id="path72" />
      <path
         d="m 4037.38,270.129 c -3.67,0 -6.63,2.961 -6.63,6.621 v 367.012 c 0.03,1.468 4.26,136.457 198.26,184.187 1.07,0.27 2.18,0.223 3.2,0 1.9,-0.488 188.43,-49.121 199.22,-207.73 0.25,-3.66 -2.53,-6.84 -6.16,-7.071 -4.33,0.043 -6.84,2.532 -7.09,6.153 -9.6,141.519 -170.08,190.398 -187.65,195.34 C 4047.95,769 4044.02,644.93 4044,643.68 V 276.75 c 0,-3.66 -2.96,-6.621 -6.62,-6.621"
         style="fill:#181716;fill-opacity:1;fill-rule:nonzero;stroke:none"
         id="path74" />
      <path
         d="m 4742.04,861.98 c -3.5,0 -6.43,2.731 -6.62,6.25 l -8.29,152.26 h -96.95 l -6.45,-152.162 c -0.16,-3.668 -3.24,-6.199 -6.91,-6.348 -3.65,0.149 -6.5,3.258 -6.35,6.891 l 6.73,158.509 c 0.15,3.54 3.08,6.35 6.64,6.35 h 109.57 c 3.54,0 6.45,-2.76 6.63,-6.26 l 8.63,-158.501 c 0.2,-3.668 -2.59,-6.789 -6.27,-6.989 -0.13,0 -0.25,0 -0.36,0 z m 7.74,-146.039 c -3.5,0 -6.44,2.739 -6.61,6.258 l -6.8,126.832 c -0.2,3.668 2.62,6.789 6.26,6.989 4.01,0.089 6.81,-2.61 6.98,-6.258 l 6.79,-126.832 c 0.21,-3.668 -2.62,-6.782 -6.26,-6.989 -0.14,0 -0.24,0 -0.36,0 z m -138.47,0 c -0.08,0 -0.15,0 -0.24,0 -3.66,0.137 -6.51,3.219 -6.37,6.879 l 4.79,126.821 c 0.12,3.668 3.2,6.64 6.86,6.379 3.65,-0.149 6.51,-3.211 6.36,-6.872 l -4.77,-126.839 c -0.13,-3.559 -3.06,-6.368 -6.63,-6.368 z m 150.95,-224.812 c -3.49,0 -6.43,2.742 -6.6,6.281 l -10.62,202.719 c -0.18,3.66 2.62,6.781 6.28,6.973 3.66,0.308 6.79,-2.622 6.98,-6.293 l 10.59,-202.719 c 0.19,-3.641 -2.61,-6.781 -6.29,-6.961 -0.1,0 -0.21,0 -0.34,0 z m -163.44,-53.801 c -0.08,0 -0.19,0 -0.29,0 -3.66,0.16 -6.47,3.25 -6.32,6.91 l 11.52,256.543 c 0.15,3.617 3.18,6.239 6.9,6.321 3.67,-0.172 6.49,-3.262 6.34,-6.922 l -11.53,-256.52 c -0.15,-3.558 -3.09,-6.332 -6.62,-6.332"
         style="fill:#100f0d;fill-opacity:1;fill-rule:nonzero;stroke:none"
         id="path76" />
      <path
         d="m 4663.11,875.23 h 39.67 v 112.508 c 0,11.203 -9.13,20.292 -20.33,20.292 -10.49,0 -19.34,-9.3 -19.34,-20.292 z m 46.28,-13.25 h -52.9 c -3.67,0 -6.62,2.95 -6.62,6.629 v 119.129 c 0,18.502 14.62,33.542 32.58,33.542 18.51,0 33.56,-15.04 33.56,-33.542 V 868.609 c 0,-3.679 -2.96,-6.629 -6.62,-6.629"
         style="fill:#100f0d;fill-opacity:1;fill-rule:nonzero;stroke:none"
         id="path78" />
      <path
         d="m 4622.83,1039.72 c -1.14,0 -2.98,-1.84 -2.98,-2.99 0,-1.11 1.87,-3 2.98,-3 h 111.55 c 0.72,0 1.99,1.48 1.99,3 0,1.52 -1.27,2.99 -1.99,2.99 z m 111.55,-19.23 h -111.55 c -8.49,0 -16.21,7.74 -16.21,16.24 0,8.51 7.72,16.25 16.21,16.25 h 111.55 c 8.25,0 15.23,-7.45 15.23,-16.25 0,-8.81 -6.98,-16.24 -15.23,-16.24"
         style="fill:#100f0d;fill-opacity:1;fill-rule:nonzero;stroke:none"
         id="path80" />
      <path
         d="m 4604.56,861.98 c -2.09,0 -2.97,-1.941 -2.97,-2.98 0,-2.09 0.88,-2.98 2.97,-2.98 h 147.11 c 2.11,0 2.98,0.851 2.98,2.98 0,1.211 -0.95,2.98 -2.98,2.98 z m 147.11,-19.199 h -147.11 c -9.39,0 -16.23,6.821 -16.23,16.219 0,8.93 7.29,16.23 16.23,16.23 h 147.11 c 8.94,0 16.22,-7.3 16.22,-16.23 0,-9.398 -6.82,-16.219 -16.22,-16.219"
         style="fill:#100f0d;fill-opacity:1;fill-rule:nonzero;stroke:none"
         id="path82" />
      <path
         d="m 4622.83,1039.72 c -2.98,0 -5.69,2.01 -6.44,5.04 -2.7,10.86 -8.23,48.08 34.09,70.87 3.21,1.69 7.24,0.53 8.99,-2.7 1.72,-3.23 0.53,-7.23 -2.71,-8.98 -32.97,-17.75 -30.21,-45.08 -27.48,-56.01 0.88,-3.54 -1.29,-7.13 -4.85,-8.03 -0.52,-0.14 -1.08,-0.19 -1.6,-0.19"
         style="fill:#100f0d;fill-opacity:1;fill-rule:nonzero;stroke:none"
         id="path84" />
      <path
         d="m 4652.62,1102.19 c -2.66,0 -5.16,1.6 -6.18,4.24 -1.31,3.41 0.38,7.24 3.79,8.57 0.12,0.04 11.36,4.52 21.59,15.58 2.51,2.72 6.69,2.87 9.38,0.36 2.67,-2.47 2.83,-6.68 0.36,-9.36 -12.45,-13.45 -26,-18.75 -26.58,-18.95 -0.77,-0.3 -1.56,-0.44 -2.36,-0.44"
         style="fill:#100f0d;fill-opacity:1;fill-rule:nonzero;stroke:none"
         id="path86" />
      <path
         d="m 4701.69,1102.19 c -0.99,0 -1.99,0.21 -2.95,0.69 -0.75,0.39 -18.57,9.32 -26.99,18.8 -2.46,2.72 -2.2,6.92 0.52,9.35 2.75,2.45 6.95,2.24 9.37,-0.54 5.58,-6.28 18.51,-13.48 23.01,-15.74 3.27,-1.64 4.63,-5.61 2.98,-8.9 -1.15,-2.32 -3.5,-3.66 -5.94,-3.66"
         style="fill:#100f0d;fill-opacity:1;fill-rule:nonzero;stroke:none"
         id="path88" />
      <path
         d="m 4652.62,1102.19 c -2.45,0 -4.85,1.39 -5.98,3.75 -1.57,3.3 -0.2,7.26 3.11,8.87 1.18,0.58 29.41,13.81 52.32,0.74 3.18,-1.81 4.3,-5.85 2.48,-9.03 -1.82,-3.2 -5.9,-4.28 -9.04,-2.49 -16.98,9.64 -39.79,-1.06 -40.03,-1.2 -0.92,-0.43 -1.9,-0.64 -2.86,-0.64"
         style="fill:#100f0d;fill-opacity:1;fill-rule:nonzero;stroke:none"
         id="path90" />
      <path
         d="m 4732.47,1040.68 c -0.44,0 -0.91,0.04 -1.38,0.13 -3.57,0.74 -5.87,4.24 -5.11,7.84 7.5,35.87 -28.79,54.02 -29.14,54.2 -3.28,1.61 -4.65,5.57 -3.06,8.87 1.61,3.28 5.6,4.64 8.87,3.06 15.9,-7.76 43.99,-32.16 36.29,-68.86 -0.63,-3.11 -3.41,-5.24 -6.47,-5.24"
         style="fill:#100f0d;fill-opacity:1;fill-rule:nonzero;stroke:none"
         id="path92" />
      <path
         d="m 4675.72,1146.19 c -2.03,0 -4.65,-2.3 -4.69,-4.89 0,-3.54 3.05,-5.47 4.69,-5.47 v 6.61 l 5.66,-1 c -0.08,1.83 -2.25,4.75 -5.66,4.75 z m 0,-13.26 c -2.83,0 -7.58,1.77 -7.58,8.51 0,3.66 3.91,7.63 7.58,7.63 5.53,0 8.54,-3.92 8.54,-7.63 0,-5.9 -4.29,-8.51 -8.54,-8.51"
         style="fill:#100f0d;fill-opacity:1;fill-rule:nonzero;stroke:none"
         id="path94" />
      <path
         d="m 4676.69,1140.45 c -2.69,0 -4.68,-2.03 -4.68,-4.74 0,-3.39 2.88,-5.58 4.98,-5.67 l -1.84,6.63 5.29,-0.96 c 0,3.07 -2.49,4.74 -3.75,4.74 z m 0,-13.26 c -6.16,0 -9.48,4.39 -9.48,8.52 0,2.29 0.9,7.61 9.48,7.61 8.47,0 8.56,-7.3 8.56,-7.61 0,-4.62 -3.92,-8.52 -8.56,-8.52"
         style="fill:#100f0d;fill-opacity:1;fill-rule:nonzero;stroke:none"
         id="path96" />
      <path
         d="m 4676.69,1133.71 c -1.27,0 -3.73,-1.65 -3.73,-4.71 0,-5.73 7.48,-5.64 7.48,0 0,3.06 -2.49,4.71 -3.75,4.71 z m 0,-13.25 c -6.16,0 -9.48,4.39 -9.48,8.54 0,4.14 3.32,8.53 9.48,8.53 6.19,0 9.51,-4.39 9.51,-8.53 0,-4.15 -3.32,-8.54 -9.51,-8.54"
         style="fill:#100f0d;fill-opacity:1;fill-rule:nonzero;stroke:none"
         id="path98" />
      <path
         d="m 4676.69,1136.77 c -3.67,0 -6.62,2.97 -6.62,6.64 v 5.77 c 0,3.67 2.95,6.63 6.62,6.63 3.67,0 6.63,-2.96 6.63,-6.63 v -5.77 c 0,-3.67 -2.96,-6.64 -6.63,-6.64"
         style="fill:#100f0d;fill-opacity:1;fill-rule:nonzero;stroke:none"
         id="path100" />
      <path
         d="m 4595.93,715 c -2.12,0 -3.97,-1.859 -3.97,-3.949 0,-2.129 1.81,-3.949 3.97,-3.949 h 164.38 c 2.14,0 3.96,1.82 3.96,3.949 0,2.09 -1.87,3.949 -3.96,3.949 z m 164.38,-21.141 h -164.38 c -9.5,0 -17.21,7.711 -17.21,17.192 0,9.488 7.71,17.179 17.21,17.179 h 164.38 c 9.5,0 17.2,-7.691 17.2,-17.179 0,-9.481 -7.7,-17.192 -17.2,-17.192"
         style="fill:#100f0d;fill-opacity:1;fill-rule:nonzero;stroke:none"
         id="path102" />
      <path
         d="m 4586.31,508.398 c -3.04,0 -4.89,-1.828 -4.89,-4.886 0,-3.071 1.85,-4.91 4.89,-4.91 h 183.64 c 3.08,0 4.93,1.839 4.93,4.91 0,3.058 -1.85,4.886 -4.93,4.886 z m 183.64,-23.039 h -183.64 c -10.35,0 -18.13,7.801 -18.13,18.153 0,10.347 7.78,18.148 18.13,18.148 h 183.64 c 10.37,0 18.17,-7.801 18.17,-18.148 0,-10.352 -7.8,-18.153 -18.17,-18.153"
         style="fill:#100f0d;fill-opacity:1;fill-rule:nonzero;stroke:none"
         id="path104" />
      <path
         d="m 4546.9,368.148 c -30.68,0 -56.61,25.473 -56.61,55.614 0,3.66 2.96,6.617 6.62,6.617 3.66,0 6.62,-2.957 6.62,-6.617 0,-22.961 19.86,-42.383 43.37,-42.383 21.94,0 39.77,18.133 42.44,43.082 l 2.89,31.609 c 0.34,3.668 3.46,6.442 7.19,6.008 3.66,-0.328 6.36,-3.547 6,-7.187 l -2.89,-31.719 c -3.38,-31.922 -26.77,-55.024 -55.63,-55.024"
         style="fill:#100f0d;fill-opacity:1;fill-rule:nonzero;stroke:none"
         id="path106" />
      <path
         d="m 3907.58,239.422 c -31.75,0 -57.58,25.777 -57.58,57.488 0,3.66 2.97,6.621 6.65,6.621 3.66,0 6.63,-2.961 6.63,-6.621 0,-23.98 20.29,-44.262 44.3,-44.262 23,0 41.66,18.922 44.37,44.93 l 2.86,32.594 c 0.33,3.668 3.63,6.308 7.2,6.027 3.65,-0.32 6.34,-3.519 6.02,-7.168 l -2.86,-32.703 c -3.45,-33.027 -27.67,-56.906 -57.59,-56.906"
         style="fill:#100f0d;fill-opacity:1;fill-rule:nonzero;stroke:none"
         id="path108" />
      <path
         d="m 4851.65,387.328 c -50.44,0 -90.89,40.274 -94.09,93.684 l -5.78,92.218 c -0.22,3.641 2.55,6.801 6.21,7.04 3.43,0.16 6.78,-2.551 7.03,-6.219 l 5.78,-92.25 c 2.76,-46.301 37.53,-81.223 80.85,-81.223 45.12,0 81.82,36.262 81.82,80.82 v 97.993 c 0,3.668 2.96,6.629 6.62,6.629 3.66,0 6.62,-2.961 6.62,-6.629 v -97.993 c 0,-51.867 -42.64,-94.07 -95.06,-94.07"
         style="fill:#100f0d;fill-opacity:1;fill-rule:nonzero;stroke:none"
         id="path110" />
      <path
         d="m 3594.16,207.672 c -52.41,0 -95.05,42.629 -95.05,95.027 V 786.93 c 0,3.672 2.97,6.629 6.63,6.629 3.66,0 6.63,-2.957 6.63,-6.629 V 302.699 c 0,-45.09 36.69,-81.801 81.79,-81.801 43.69,0 79.97,36.774 80.87,81.942 l 1.92,81.691 c 0.09,3.649 2.36,6.68 6.8,6.469 3.65,-0.078 6.55,-3.109 6.46,-6.801 l -1.9,-81.66 c -1.06,-52.301 -43.3,-94.867 -94.15,-94.867"
         style="fill:#100f0d;fill-opacity:1;fill-rule:nonzero;stroke:none"
         id="path112" />
      <path
         d="m 3327.87,671.73 c -3.66,0 -6.63,2.961 -6.63,6.622 V 826.32 c 0,52.41 42.23,95.032 94.13,95.032 52.28,0 94.03,-41.692 95.05,-94.883 l 1.95,-81.629 c 0.08,-3.649 -2.81,-6.711 -6.48,-6.77 -0.05,0 -0.1,0 -0.15,0 -3.6,0 -6.54,2.86 -6.63,6.45 l -1.95,81.64 c -0.89,45.969 -36.8,81.949 -81.79,81.949 -44.58,0 -80.86,-36.687 -80.86,-81.789 V 678.352 c 0,-3.661 -2.97,-6.622 -6.64,-6.622"
         style="fill:#100f0d;fill-opacity:1;fill-rule:nonzero;stroke:none"
         id="path114" />
      <path
         d="m 4939.15,490.148 c -3.68,0 -6.64,2.961 -6.64,6.622 v 115.332 c 0,51.488 43.54,95 95.07,95 51.38,0 94.04,-42.551 95.07,-94.872 0.09,-3.66 -2.82,-6.691 -6.48,-6.761 -0.04,0 -0.1,0 -0.14,0 -3.6,0 -6.56,2.871 -6.63,6.5 -0.91,45.133 -37.62,81.89 -81.82,81.89 -44.35,0 -81.81,-37.461 -81.81,-81.757 V 496.77 c 0,-3.661 -2.96,-6.622 -6.62,-6.622"
         style="fill:#100f0d;fill-opacity:1;fill-rule:nonzero;stroke:none"
         id="path116" />
      <path
         d="M 5402.54,518.988 H 5204.5 c -52.45,0 -95.1,42.621 -95.1,95.024 0,3.648 2.96,6.609 6.63,6.609 3.66,0 6.62,-2.961 6.62,-6.609 0,-45.102 36.71,-81.793 81.85,-81.793 h 198.04 c 3.67,0 6.63,-2.957 6.63,-6.61 0,-3.66 -2.96,-6.621 -6.63,-6.621"
         style="fill:#100f0d;fill-opacity:1;fill-rule:nonzero;stroke:none"
         id="path118" />
      <path
         d="M 3239.45,597.75 H 7.26172 c -3.65625,0 -6.625001,2.961 -6.625001,6.609 0,3.661 2.968751,6.621 6.625001,6.621 H 3239.45 c 45.1,0 81.79,36.68 81.79,81.77 0,3.672 2.97,6.629 6.63,6.629 3.67,0 6.64,-2.957 6.64,-6.629 0,-52.398 -42.64,-95 -95.06,-95"
         style="fill:#100f0d;fill-opacity:1;fill-rule:nonzero;stroke:none"
         id="path120" />
    </g>
  </g>
</svg>
